<svg fill="#ba9d5a" height="800" width="800" xmlns="http://www.w3.org/2000/svg" viewBox="0 0 512 512" xml:space="preserve"><path d="M224 128v128l112-64z"/><path d="M480 0H32C14.328 0 0 14.328 0 32v448c0 17.672 14.328 32 32 32h448c17.672 0 32-14.328 32-32V32c0-17.672-14.328-32-32-32zm-48 432h-64v16c0 8.836-7.156 16-16 16-8.844 0-16-7.164-16-16v-16H80c-8.844 0-16-7.164-16-16s7.156-16 16-16h256v-16c0-8.836 7.156-16 16-16 8.844 0 16 7.164 16 16v16h64c8.844 0 16 7.164 16 16s-7.156 16-16 16zm16-112H64V64h384v256z"/></svg>